P2
# Created by GIMP version 2.10.24 PNM plug-in
105 140
255
0
0
0
0
0
0
0
0
0
0
0
0
0
0
0
0
0
0
0
0
0
0
0
0
0
0
0
0
0
0
0
0
0
0
0
0
0
0
0
0
0
0
0
0
0
0
0
0
0
0
0
0
0
0
0
0
0
0
0
0
0
0
0
0
0
0
0
0
0
0
0
0
0
0
0
0
0
0
0
0
0
0
0
0
0
0
0
0
0
0
0
0
0
0
0
0
0
0
0
0
0
0
0
0
0
0
0
0
0
0
0
0
0
0
0
0
0
0
0
0
0
0
0
0
0
0
0
0
0
0
0
0
0
0
0
0
0
0
0
0
0
0
0
0
0
0
0
0
0
0
0
0
0
0
0
0
0
0
0
0
0
0
0
0
0
0
0
0
0
0
0
0
0
0
0
0
0
0
0
0
0
0
0
0
0
0
0
0
0
0
0
0
0
0
0
0
0
0
0
0
0
0
0
0
0
0
0
0
0
0
0
0
0
0
0
0
0
0
0
0
0
0
0
0
0
0
0
0
0
0
0
0
0
0
0
0
0
0
0
0
0
0
0
0
0
0
0
0
0
0
0
0
0
0
0
0
0
0
0
0
0
0
0
0
0
0
0
0
0
0
0
0
0
0
0
0
0
0
0
0
0
0
0
0
0
0
0
0
0
0
0
0
0
0
0
0
0
0
0
0
0
0
0
0
0
0
0
0
0
0
0
0
0
0
0
0
0
0
0
0
0
0
0
0
0
0
0
0
0
0
0
0
0
0
0
0
0
0
0
0
0
0
0
0
0
0
0
0
0
0
0
0
0
0
0
0
0
0
0
0
0
0
0
0
0
0
0
0
0
0
0
0
0
0
0
0
0
0
0
0
0
0
0
0
0
0
0
0
0
0
0
0
0
0
0
0
0
0
0
0
0
0
0
0
0
0
0
0
0
0
0
0
0
0
0
0
0
0
0
0
0
0
0
0
0
0
0
0
0
0
0
0
0
0
0
0
0
0
0
0
0
0
0
0
0
0
0
0
0
0
0
0
0
0
0
0
0
0
0
0
0
0
0
0
0
0
0
0
0
0
0
0
0
0
0
0
0
0
0
0
0
0
0
0
0
0
0
0
0
0
0
0
0
0
0
0
0
0
0
0
0
0
0
0
0
0
0
0
0
0
0
0
0
0
0
0
0
0
0
0
0
0
0
0
0
0
0
0
0
0
0
0
0
0
0
0
0
0
0
0
0
0
0
0
0
0
0
0
0
0
0
0
0
0
0
0
0
0
0
0
0
0
0
0
0
0
0
0
0
0
0
0
0
0
0
0
0
0
0
0
0
0
0
0
0
0
0
0
0
0
0
0
0
0
0
0
0
0
0
0
0
0
0
0
0
0
0
0
0
0
0
0
0
0
0
0
0
0
0
0
0
0
0
0
0
0
0
0
0
0
0
0
0
0
0
0
0
0
0
0
0
0
0
0
0
0
0
0
0
0
0
0
0
0
0
0
0
0
0
0
0
0
0
0
0
0
0
0
0
0
0
0
0
0
0
0
0
0
0
0
0
0
0
0
0
0
0
0
0
0
0
0
0
0
0
0
0
0
0
0
0
0
0
0
0
0
0
0
0
0
0
0
0
0
0
0
0
0
0
0
0
0
0
0
0
0
0
0
0
0
0
0
0
0
0
0
0
0
0
0
0
0
0
0
0
0
0
0
0
0
0
0
0
0
0
0
0
0
0
0
0
0
0
0
0
0
0
0
0
0
0
0
0
0
0
0
0
0
0
0
0
0
0
0
0
0
0
0
0
0
0
0
0
0
0
0
0
0
0
0
0
0
0
0
0
0
0
0
0
0
0
0
0
0
0
0
0
0
0
0
0
0
0
0
0
0
0
0
0
0
0
0
0
0
0
0
0
0
0
0
0
0
0
0
0
0
0
0
0
0
0
0
0
0
0
0
0
0
0
0
0
0
0
0
0
0
0
0
0
0
0
0
0
0
0
0
0
0
0
0
0
0
0
0
0
0
0
0
0
0
0
0
0
0
0
0
0
0
0
0
0
0
0
0
0
0
0
0
0
0
0
0
0
0
0
0
0
0
0
0
0
0
0
0
0
0
0
0
0
0
0
0
0
0
0
0
0
0
0
0
0
0
0
0
0
0
0
0
0
0
0
0
0
0
0
0
0
0
0
0
0
0
0
0
0
0
0
0
0
0
0
0
0
0
0
0
0
0
0
0
0
0
0
0
0
0
0
0
0
0
0
0
0
0
0
0
0
0
0
0
0
0
0
0
0
0
0
0
0
0
0
0
0
0
0
0
0
0
0
0
0
0
0
0
0
0
0
0
0
0
0
0
0
0
0
0
0
0
0
0
0
0
0
0
0
0
0
0
0
0
0
0
0
0
0
0
0
0
0
0
0
0
0
0
0
0
0
0
0
0
0
0
0
0
0
0
0
0
0
0
0
0
0
0
0
0
0
0
0
0
0
0
0
0
0
0
0
0
0
0
0
0
0
0
0
0
0
0
0
0
0
0
0
0
0
0
0
0
0
0
0
0
0
0
0
0
0
0
0
0
0
0
0
0
0
0
0
0
0
0
0
0
0
0
0
0
0
0
0
0
0
0
0
0
0
0
0
0
0
0
0
0
0
0
0
0
0
0
0
0
0
0
0
0
0
0
0
0
0
0
0
0
0
0
0
0
0
0
0
0
0
0
0
0
0
0
0
0
0
0
0
0
0
0
0
0
0
0
0
0
0
0
0
0
0
0
0
0
0
0
0
0
0
0
0
0
0
0
0
0
0
0
0
0
0
0
0
0
0
0
0
0
0
0
0
0
0
0
0
0
0
0
0
0
0
0
0
0
0
0
0
0
0
0
0
0
0
0
0
0
0
0
0
0
0
0
0
0
0
0
0
0
0
0
0
0
0
0
0
0
0
0
0
0
0
0
0
0
0
0
0
0
0
0
0
0
0
0
0
0
0
0
0
0
0
0
0
0
0
0
0
0
0
0
0
0
0
0
0
0
0
0
0
0
0
0
0
0
0
0
0
0
0
0
0
0
0
0
0
0
0
0
0
0
0
0
0
0
0
0
0
0
0
0
0
0
0
0
0
0
0
0
0
0
0
0
0
0
0
0
0
0
0
0
0
0
0
0
0
0
0
0
0
0
0
0
0
0
0
0
0
0
0
0
0
0
0
0
0
0
0
0
0
0
0
0
0
0
0
0
0
0
0
0
0
0
0
0
0
0
0
0
0
0
0
0
0
0
0
0
0
0
0
0
0
0
0
0
0
0
0
0
0
0
0
0
0
0
0
0
0
0
0
0
0
0
0
0
0
0
0
0
0
0
0
0
0
0
0
0
0
0
0
0
0
0
0
0
0
0
0
0
0
0
0
0
0
0
0
0
0
0
0
0
0
0
0
0
0
0
0
0
0
0
0
0
0
0
0
0
0
0
0
0
0
0
0
0
0
0
0
0
0
0
0
0
0
0
0
0
0
0
0
0
0
0
0
0
0
0
0
0
0
0
0
0
0
0
0
0
0
0
0
0
0
0
0
0
0
0
0
0
0
0
0
0
0
0
0
0
0
0
0
0
0
0
0
0
0
0
0
0
0
0
0
0
0
0
0
0
0
0
0
0
0
0
0
0
0
0
0
0
0
0
0
0
0
0
0
0
0
0
0
0
0
0
0
0
0
0
0
0
0
0
0
0
0
0
0
0
0
0
0
0
0
0
0
0
0
0
0
0
0
0
0
0
0
0
0
0
0
0
0
0
0
0
0
0
0
0
0
0
0
0
0
0
0
0
0
0
0
0
0
0
0
0
0
0
0
0
0
0
0
0
0
0
0
0
0
0
0
0
0
0
0
0
0
0
0
0
0
0
0
0
0
0
0
0
0
0
0
0
0
0
0
0
0
0
0
0
0
0
0
0
0
0
0
0
0
0
0
0
0
0
0
0
0
0
0
0
0
0
0
0
0
0
0
0
0
0
0
0
0
0
0
0
0
0
0
0
0
0
0
0
0
0
0
0
0
0
0
0
0
0
0
0
0
0
0
0
0
0
0
0
0
0
0
0
0
0
0
0
0
0
0
0
0
0
0
0
0
0
0
0
0
0
0
0
0
0
0
0
0
0
0
0
0
0
0
0
0
0
0
0
0
0
0
0
0
0
0
0
0
0
0
0
0
0
0
0
0
0
0
0
0
0
0
0
0
0
0
0
0
0
0
0
0
0
0
0
0
0
0
0
0
0
0
0
0
0
0
0
0
0
0
0
0
0
0
0
0
0
0
0
0
0
0
0
0
0
0
0
0
0
0
0
0
0
0
0
0
0
0
0
0
0
0
0
0
0
0
0
0
0
0
0
0
0
0
0
0
0
0
0
0
0
0
0
0
0
0
0
0
193
193
193
193
193
193
193
193
193
0
0
0
0
0
0
0
0
0
0
0
0
0
0
0
0
0
0
0
0
0
0
0
0
0
0
0
0
0
0
0
0
0
0
0
0
0
0
0
0
0
0
0
0
0
0
0
0
0
0
0
0
0
0
0
0
0
0
0
0
0
0
0
0
0
0
0
0
0
0
0
0
0
0
0
0
0
0
0
0
0
0
0
0
0
0
0
0
0
0
0
0
0
0
0
0
253
194
194
194
194
194
194
195
186
0
0
0
0
0
0
0
0
0
0
0
0
0
0
0
0
0
0
0
0
0
0
0
0
0
0
0
0
0
0
0
0
0
0
0
0
0
0
0
0
0
0
0
0
0
0
0
0
0
0
0
0
0
0
0
0
0
0
0
0
0
0
0
0
0
0
0
0
0
0
0
0
0
0
0
0
0
0
0
0
0
0
0
0
0
0
0
0
0
0
0
0
0
0
0
0
188
187
187
187
187
187
187
187
188
0
0
0
0
0
0
0
0
0
0
0
0
0
0
0
0
0
0
0
0
0
0
0
0
0
0
0
0
0
0
0
0
0
0
0
0
0
0
0
0
0
0
0
0
0
0
0
0
0
0
0
0
0
0
0
0
0
0
0
0
0
0
0
0
0
0
0
0
0
0
0
0
0
0
0
0
0
0
0
0
0
0
0
0
0
0
0
0
0
0
0
0
0
0
0
0
188
193
195
195
195
195
195
193
189
0
0
0
0
0
0
0
0
0
0
0
0
0
0
0
0
0
0
0
0
0
0
0
0
0
0
0
0
0
0
0
0
0
0
0
0
0
0
0
0
0
0
0
0
0
0
0
0
0
0
0
0
0
0
0
0
0
0
0
0
0
0
0
0
0
0
0
0
0
0
0
0
0
0
0
0
142
142
146
0
0
0
0
0
0
0
0
0
0
0
0
0
0
0
0
0
187
190
190
190
190
190
190
190
188
0
0
0
0
0
0
0
0
0
0
0
0
0
0
0
0
0
0
0
0
0
0
0
0
0
0
0
0
0
0
0
0
0
0
0
0
0
0
0
0
0
0
0
0
0
0
0
0
0
0
0
0
0
0
0
0
0
0
0
0
0
0
0
0
0
0
0
0
0
0
0
0
0
0
0
0
69
149
129
134
137
150
0
0
0
0
0
0
0
0
0
0
0
0
0
0
188
188
188
187
186
186
186
187
188
0
0
0
0
0
0
0
0
0
0
0
0
168
166
167
0
0
0
0
0
0
0
0
0
0
0
0
0
0
0
0
0
0
0
0
0
0
0
0
0
0
0
0
0
0
0
0
0
0
0
0
0
0
0
0
0
0
0
0
0
0
0
0
0
0
0
0
0
0
0
0
0
0
0
0
0
136
133
134
135
138
129
134
138
150
0
0
0
0
0
0
0
0
0
0
0
193
74
73
187
187
187
187
187
188
0
0
0
0
0
0
0
0
0
0
188
166
145
166
255
165
0
0
0
0
0
0
0
0
0
0
0
0
0
0
0
0
0
0
0
0
0
0
0
0
0
0
0
0
0
0
0
0
0
0
0
0
0
0
0
0
0
0
0
0
0
0
0
0
0
0
0
0
0
0
0
0
0
0
0
0
135
132
132
132
133
134
134
138
129
134
137
148
0
0
0
0
0
0
0
0
184
44
57
187
187
187
187
187
188
0
0
0
0
0
0
0
0
189
164
162
155
164
163
164
165
168
0
0
0
0
0
0
0
0
0
0
0
0
0
0
0
0
0
0
0
0
0
0
0
0
0
0
0
0
0
0
0
0
0
0
0
0
0
0
0
0
0
0
0
0
0
0
0
0
0
0
0
0
0
0
0
0
0
0
0
134
132
132
132
132
132
132
133
134
134
137
129
134
137
146
0
0
0
0
0
188
187
187
187
187
187
187
187
188
0
0
0
0
0
0
0
0
164
164
164
164
163
163
163
164
225
165
0
0
0
0
0
0
0
0
0
0
0
0
0
0
0
0
0
0
0
0
0
0
0
0
0
0
0
0
0
0
0
0
0
0
0
0
0
0
0
0
0
0
0
0
0
0
0
0
0
0
0
0
0
0
0
0
0
0
134
132
132
132
132
132
132
132
132
132
133
133
134
137
129
0
0
0
0
0
187
188
188
188
188
188
188
188
188
0
0
0
0
0
0
0
0
165
163
163
163
163
163
163
163
164
166
0
0
0
0
0
0
0
0
0
0
0
0
0
0
0
0
0
0
0
0
0
0
0
0
0
0
0
0
0
0
0
0
0
0
0
0
0
0
0
0
0
0
0
0
0
0
0
0
0
0
0
0
0
0
0
0
0
209
134
132
132
132
132
132
132
132
132
132
132
132
132
133
135
0
0
0
0
0
187
194
196
196
196
196
196
195
189
0
0
0
0
0
0
0
176
164
163
163
163
163
163
163
163
163
165
175
0
0
0
0
0
0
0
0
0
0
0
0
0
0
0
0
0
0
0
0
0
0
0
0
0
0
0
0
0
0
0
0
0
0
0
0
0
0
0
0
0
0
0
0
0
0
0
0
0
0
0
0
0
0
0
0
130
133
132
134
134
132
132
132
132
132
132
132
132
132
132
134
239
0
0
0
0
187
187
187
187
187
187
187
187
188
0
0
0
0
0
0
0
163
164
163
163
163
163
163
163
163
163
164
162
166
0
0
0
0
0
0
0
0
0
0
0
0
0
0
0
0
0
0
0
0
0
0
0
0
0
0
0
0
0
0
0
0
0
0
0
0
0
0
0
0
0
0
0
0
0
0
0
0
0
0
0
0
0
0
0
146
133
132
134
133
132
134
133
132
132
132
132
132
132
132
133
140
0
0
0
0
189
189
190
190
190
189
190
189
191
0
0
0
0
0
0
176
164
163
163
163
163
163
163
163
163
163
164
164
168
0
0
0
0
0
0
0
0
0
0
0
0
0
0
0
0
0
0
0
0
0
0
0
0
0
0
0
0
0
0
0
0
0
0
0
0
0
0
0
0
0
0
0
0
0
0
0
0
0
0
0
0
0
0
0
138
133
132
133
133
133
137
133
134
133
133
134
132
132
132
133
96
194
0
0
0
189
189
190
190
190
190
190
189
190
0
0
0
0
0
0
176
163
163
163
163
163
163
163
163
163
163
163
163
165
0
0
0
0
0
0
0
0
0
0
0
0
0
0
0
0
0
0
0
0
0
0
0
0
0
0
0
0
0
0
0
0
0
0
0
0
0
0
0
0
0
0
0
0
0
0
0
0
0
0
0
0
0
0
0
136
132
132
133
134
134
135
134
134
132
133
134
133
133
133
134
166
183
188
191
0
0
0
0
0
0
0
0
0
0
0
0
0
0
0
0
173
163
163
163
163
163
163
163
163
163
163
163
163
165
0
0
0
0
0
0
0
0
0
0
0
0
0
0
0
0
0
0
0
0
0
0
0
0
0
0
0
0
0
0
0
0
0
0
0
0
0
0
0
0
0
0
0
0
0
0
0
0
0
0
0
0
0
0
0
134
132
132
135
135
135
135
134
134
132
134
134
133
125
108
135
180
188
188
182
189
195
0
0
0
0
0
0
0
0
42
41
59
0
0
0
177
164
163
163
163
163
163
163
163
163
163
163
163
165
0
0
0
0
0
0
0
0
0
0
0
0
0
0
0
0
0
0
0
0
0
0
0
0
0
0
0
0
0
0
0
0
0
0
0
0
0
0
0
0
0
0
0
0
0
0
0
0
0
0
0
0
0
0
0
134
132
132
132
133
133
132
135
134
132
134
134
132
113
127
115
168
188
187
188
190
188
193
0
0
0
0
0
0
0
43
42
1
0
0
0
177
165
164
164
164
164
164
164
164
164
164
164
164
167
0
0
0
0
0
0
0
0
0
0
0
0
0
0
0
0
0
0
0
0
0
0
0
0
0
0
0
0
0
0
0
0
0
0
0
0
0
0
0
0
0
0
0
0
0
0
0
0
0
0
0
0
0
0
0
134
132
132
132
132
132
132
133
134
134
135
133
131
117
167
117
132
202
187
187
187
188
187
194
0
0
0
0
0
0
37
36
44
0
0
0
0
164
159
151
151
151
151
151
151
151
151
154
162
166
0
0
0
0
0
0
0
0
0
0
0
0
0
0
0
0
0
0
0
0
0
0
0
0
0
0
0
0
0
0
0
0
0
0
0
0
0
0
0
0
0
0
0
0
0
0
0
0
0
0
0
0
0
0
0
133
132
132
132
132
132
132
132
132
132
133
134
133
115
139
152
129
195
187
189
187
187
188
187
126
0
0
0
0
0
36
34
41
0
0
0
0
186
183
186
186
186
186
186
186
186
186
185
182
0
0
0
0
0
0
0
0
0
0
0
0
0
0
0
0
0
0
0
0
0
0
0
0
0
0
0
0
0
0
0
0
0
0
0
0
0
0
0
0
0
0
0
0
0
0
0
0
0
0
0
0
0
0
0
0
134
133
132
132
132
132
132
132
132
132
132
132
132
132
142
178
189
190
198
188
190
187
187
188
188
0
0
182
37
35
36
34
42
36
41
0
0
0
0
0
0
0
0
0
0
0
0
0
184
183
183
183
171
166
167
167
167
167
166
175
0
0
0
0
0
0
0
0
0
0
0
0
0
0
0
0
0
0
0
0
0
0
0
0
0
0
0
0
0
0
0
0
0
0
0
0
0
0
0
0
0
0
0
0
0
120
137
134
133
133
132
132
132
132
132
132
132
132
132
132
177
188
192
191
0
189
191
187
187
189
204
0
11
38
37
36
34
37
38
42
0
0
0
0
0
0
0
0
0
0
0
0
0
185
183
183
183
170
166
166
166
166
166
167
165
0
0
0
0
0
0
0
0
0
0
0
0
0
0
0
0
0
0
0
0
0
0
0
0
0
0
0
0
0
0
0
0
0
0
0
0
0
0
0
0
0
0
0
0
0
145
137
134
128
137
134
133
133
132
132
132
132
132
132
133
187
187
187
185
103
36
42
203
189
192
42
140
74
35
33
33
33
33
33
38
0
0
0
0
0
0
0
0
0
0
0
0
0
185
185
185
185
171
163
164
164
164
164
164
166
0
0
0
0
0
0
0
0
0
0
0
0
0
0
0
0
0
0
0
0
0
0
0
0
0
0
0
0
0
0
0
0
0
0
0
0
0
0
0
0
0
0
0
0
0
0
0
0
144
137
133
128
137
134
133
132
132
132
132
134
178
188
187
188
19
36
35
33
74
125
73
36
78
37
35
34
33
35
36
40
0
0
0
0
0
0
0
0
0
0
0
0
0
183
183
183
183
175
161
161
161
161
161
162
166
0
0
0
0
0
0
0
0
0
0
0
0
0
0
0
0
0
0
0
0
0
0
0
0
0
0
0
0
0
0
0
0
0
0
0
0
0
0
0
0
0
0
0
0
180
182
0
0
0
0
0
144
137
133
128
136
134
133
133
139
223
182
188
190
127
36
32
34
34
45
36
39
37
0
90
37
34
46
119
31
0
0
0
0
0
0
0
0
0
94
39
40
0
113
112
112
112
106
70
63
63
63
63
64
72
0
0
0
0
0
0
0
0
0
0
0
0
0
0
0
0
0
0
0
0
0
0
0
0
0
0
0
0
0
0
0
0
0
0
0
0
0
0
0
0
0
0
0
164
162
163
166
0
0
0
0
0
0
0
144
136
133
128
120
137
0
191
22
105
151
146
156
196
176
146
41
34
40
50
70
36
34
40
69
61
0
0
0
0
0
0
0
0
0
37
40
40
0
78
76
75
75
75
36
13
14
14
14
15
26
0
0
0
0
0
0
0
0
0
0
0
0
0
0
0
0
0
0
0
0
0
0
0
0
0
0
0
0
0
0
0
0
0
0
0
0
0
0
0
0
166
165
164
164
164
164
167
0
0
0
0
0
0
0
0
0
0
148
147
0
0
37
37
33
102
191
188
187
187
191
43
34
35
50
0
37
34
43
0
0
0
0
0
0
0
0
0
0
0
47
35
35
0
135
134
134
134
135
120
95
95
95
95
96
101
0
0
0
0
0
0
0
0
0
0
0
0
0
0
0
0
0
0
0
0
0
0
0
0
0
0
0
0
0
0
0
0
0
0
0
0
0
0
0
168
170
165
165
163
163
163
164
163
164
0
0
0
0
0
0
0
0
0
0
0
0
43
35
36
158
194
188
187
187
189
43
38
35
38
56
38
37
51
0
0
0
0
0
0
0
0
0
0
64
38
33
35
0
187
186
188
188
187
185
170
169
169
169
169
175
0
0
0
0
0
0
0
0
0
0
0
0
0
0
0
0
0
0
0
0
0
0
0
0
0
0
0
0
0
0
0
0
0
0
0
0
0
0
0
160
164
163
163
163
163
163
163
164
165
0
0
0
0
2
2
2
2
2
2
2
4
38
36
45
2
50
138
152
147
67
2
0
36
37
0
20
25
7
2
2
2
2
10
0
0
0
0
0
0
36
33
38
0
185
185
186
186
185
186
178
165
165
165
166
171
0
0
0
0
0
0
0
0
0
0
0
0
0
0
0
0
0
0
0
0
0
0
0
0
0
0
0
0
0
0
0
0
0
0
0
0
0
0
0
165
163
163
163
163
163
163
163
163
164
0
0
0
0
2
2
1
1
1
1
1
3
34
33
0
1
1
1
1
1
1
1
1
29
35
23
1
1
1
1
1
1
2
9
0
0
0
0
0
43
34
34
44
0
185
185
185
185
185
185
179
164
163
163
164
170
0
0
0
0
0
0
0
0
0
0
0
0
0
0
0
0
0
0
0
0
0
0
0
0
0
0
0
0
0
0
0
0
0
0
0
0
0
0
165
165
163
163
163
163
163
163
163
163
164
164
166
0
0
1
0
0
0
0
0
0
2
23
7
0
0
0
0
0
0
0
0
0
1
22
9
0
0
0
0
0
0
0
3
0
0
67
43
48
38
33
36
22
0
185
185
185
185
185
185
183
167
163
163
164
170
0
0
0
0
0
0
0
0
0
0
0
0
0
0
0
0
0
0
0
0
0
0
0
0
0
0
0
0
0
0
0
0
0
0
0
0
0
0
165
164
163
163
163
163
163
163
163
163
164
165
170
0
0
0
0
0
0
0
0
0
5
21
2
0
0
0
0
0
0
0
0
0
0
16
12
0
0
0
0
0
0
0
2
0
0
42
45
62
35
34
39
80
0
185
185
185
185
185
185
185
173
163
163
164
168
0
0
0
0
0
0
0
0
0
0
0
0
0
0
0
0
0
0
0
0
0
0
0
0
0
0
0
0
0
0
0
0
0
0
0
0
0
0
164
163
163
163
163
163
163
163
163
163
163
163
164
0
0
0
0
0
0
0
0
0
8
19
0
0
0
0
0
0
0
0
0
0
0
11
16
0
0
0
0
0
0
0
2
0
0
49
35
36
34
34
50
0
0
184
185
185
185
185
185
185
179
164
163
164
166
0
0
0
0
0
0
0
0
0
0
0
0
0
0
0
0
0
0
0
0
0
0
0
0
0
0
0
0
0
0
0
0
0
0
0
0
0
0
164
163
163
163
163
163
163
163
163
163
163
163
164
0
0
0
0
0
0
0
0
0
9
17
0
0
0
0
0
0
0
0
0
0
0
9
18
0
0
0
0
0
0
0
2
0
0
43
34
33
33
37
40
0
0
184
186
187
187
187
187
187
184
168
166
167
165
0
0
0
0
0
0
0
0
0
0
0
0
0
0
0
0
0
0
0
0
0
0
0
0
0
0
0
0
0
0
0
0
0
0
0
0
0
0
164
163
163
163
163
163
163
163
163
163
163
163
164
0
0
0
0
0
0
0
0
0
15
24
2
0
0
0
0
0
0
0
0
0
0
16
24
2
0
0
0
0
0
0
2
0
0
41
34
33
33
35
41
0
0
183
186
187
187
187
187
187
184
168
167
167
173
0
0
0
0
0
0
0
0
0
0
0
0
0
0
0
0
0
0
0
0
0
0
0
0
0
0
0
0
0
0
0
0
0
0
0
0
0
0
164
163
163
163
163
163
163
163
163
163
163
163
165
0
0
0
0
0
0
0
0
0
20
30
5
0
0
0
0
0
0
0
0
0
0
22
29
3
0
0
0
0
0
0
2
0
0
41
34
33
33
33
37
0
0
0
0
0
0
0
0
0
0
0
0
0
0
0
0
0
0
0
0
0
0
0
0
0
0
0
0
0
0
0
0
0
0
0
0
0
0
0
0
0
0
0
0
0
0
0
0
0
0
0
0
163
166
166
166
166
166
166
166
166
166
166
166
164
0
45
0
2
5
5
1
0
0
10
17
2
0
0
0
0
0
0
0
0
0
0
11
17
1
0
0
0
0
0
0
2
0
0
41
34
33
33
33
37
0
0
0
0
0
0
0
0
0
0
0
0
0
0
0
0
0
0
0
0
0
0
0
0
0
0
0
0
0
0
0
0
0
0
0
0
0
0
0
0
0
0
0
0
0
0
0
0
0
0
0
0
168
166
166
166
166
166
166
166
166
166
166
166
168
54
26
19
22
24
24
21
6
0
0
0
0
0
0
0
0
0
0
0
0
0
0
0
0
0
0
0
0
0
0
0
2
0
0
40
34
33
33
36
46
0
0
0
0
0
0
0
0
0
0
0
0
0
0
0
0
0
0
0
0
0
0
0
0
0
0
0
0
0
0
0
0
0
0
0
0
0
0
0
0
0
0
0
0
0
0
0
0
0
0
0
0
0
0
0
0
0
0
0
0
0
0
0
0
0
34
38
29
11
3
3
12
22
6
0
0
0
0
0
0
0
0
0
0
0
0
0
0
0
0
0
0
0
0
0
0
2
0
0
43
34
33
36
16
44
0
0
0
0
0
0
0
0
0
50
45
47
0
0
0
0
0
0
0
0
0
0
0
0
0
0
0
0
0
0
0
0
0
0
0
0
0
0
0
0
0
0
0
0
0
0
0
0
0
0
0
0
0
0
0
0
0
0
0
0
0
0
0
0
93
39
37
20
0
0
0
0
9
19
2
0
0
0
0
0
0
0
0
0
0
0
0
0
0
0
0
0
0
0
0
0
2
0
0
45
36
37
28
45
0
0
0
0
0
0
0
0
0
43
31
48
55
0
0
0
0
0
0
0
0
0
0
0
0
0
0
0
0
0
0
0
0
0
0
0
0
0
0
0
0
0
0
0
0
0
0
0
0
0
0
0
0
0
0
0
0
0
0
0
137
137
137
137
137
127
37
38
4
0
0
0
0
0
15
9
0
0
0
0
0
0
0
0
0
0
0
0
0
0
0
0
0
0
0
0
0
2
0
0
44
29
32
49
0
0
0
0
0
0
0
0
54
37
51
36
34
38
0
0
0
0
0
0
0
0
0
0
0
0
0
0
0
0
0
0
0
0
0
0
0
0
0
0
0
0
0
0
0
0
0
0
0
0
0
0
0
0
0
0
0
0
0
0
0
137
137
137
137
137
122
50
97
49
19
19
19
19
19
24
26
19
19
19
19
19
9
0
0
0
0
0
0
0
0
0
0
0
0
0
0
0
2
0
0
0
59
60
0
0
0
0
0
0
0
0
42
31
38
35
33
33
37
0
0
0
0
0
0
0
0
0
0
0
0
0
0
0
0
0
0
0
0
0
0
0
0
0
0
0
0
0
0
0
0
0
0
0
0
0
0
0
0
0
0
0
0
0
0
0
137
137
137
137
137
124
84
135
131
122
122
122
122
122
120
78
115
123
122
122
124
58
0
0
0
0
0
0
0
0
0
0
0
0
0
0
0
0
41
41
41
41
41
41
41
41
41
41
41
41
40
46
36
34
33
33
34
40
0
0
0
0
0
0
0
0
0
0
0
0
0
0
0
0
0
0
0
0
0
0
0
0
0
0
0
0
0
0
0
0
0
0
0
0
0
0
0
0
0
0
0
0
0
0
0
137
137
137
137
138
116
95
137
137
138
138
138
138
138
138
92
122
138
138
138
139
66
0
0
0
0
0
0
0
0
0
2
3
3
3
3
5
37
41
41
41
41
41
41
41
41
41
41
41
41
40
35
33
33
34
36
44
37
0
0
0
0
0
0
0
0
0
0
0
0
0
0
0
0
0
0
0
0
0
0
0
0
0
0
0
0
0
0
0
0
0
0
0
0
0
0
0
0
0
0
0
0
0
0
0
137
137
137
137
138
109
100
138
137
137
137
137
137
137
138
95
115
138
137
137
138
65
0
0
0
0
0
0
0
0
4
24
28
28
28
28
29
33
34
34
34
34
34
34
34
34
34
34
34
34
34
33
33
34
38
30
41
107
0
0
0
0
0
0
0
0
0
0
0
0
0
0
0
0
0
0
0
0
0
0
0
0
0
0
0
0
0
0
0
0
0
0
0
0
0
0
0
0
0
0
0
0
0
0
0
137
137
137
137
138
90
73
136
137
137
137
137
137
137
135
67
97
138
137
137
138
65
0
0
0
0
0
0
0
0
6
31
34
33
34
34
33
33
33
33
33
33
33
33
33
33
33
33
33
33
33
33
36
46
36
48
0
0
0
0
0
0
0
0
0
0
0
0
0
0
0
0
0
0
0
0
0
0
0
0
0
0
0
0
0
0
0
0
0
0
0
0
0
0
0
0
0
0
0
0
0
0
0
0
0
137
137
137
137
138
98
83
137
137
137
137
137
137
137
135
79
104
138
137
137
138
65
0
0
0
0
0
0
0
0
1
12
23
31
18
15
22
34
37
37
34
35
37
36
34
37
37
34
34
37
35
33
39
42
0
0
0
0
0
0
0
0
0
0
0
0
0
0
0
0
0
0
0
0
0
0
0
0
0
0
0
0
0
0
0
0
0
0
0
0
0
0
0
0
0
0
0
0
0
0
0
0
0
0
0
137
137
137
137
137
135
133
137
137
137
137
137
137
137
137
133
135
137
137
137
138
65
0
0
0
0
0
0
0
0
0
0
11
31
8
0
12
34
49
67
34
36
35
37
34
42
32
34
35
33
35
34
42
0
0
0
0
0
0
0
0
0
0
0
0
0
0
0
0
0
0
0
0
0
0
0
0
0
0
0
0
0
0
0
0
0
0
0
0
0
0
0
0
0
0
0
0
0
0
0
0
0
0
0
0
137
137
137
137
137
137
137
137
137
137
137
137
137
137
137
137
137
137
137
137
138
65
0
0
0
0
0
0
0
0
0
0
7
31
16
5
15
34
41
43
34
36
43
37
34
41
43
34
36
40
34
34
46
0
0
0
0
0
0
0
0
0
0
0
0
0
0
0
0
0
0
0
0
0
0
0
0
0
0
0
0
0
0
0
0
0
0
0
0
0
0
0
0
0
0
0
0
0
0
0
0
0
0
0
0
137
137
137
137
137
137
137
137
137
137
137
137
137
137
137
137
137
137
137
137
138
65
0
0
0
0
0
0
0
0
0
0
4
28
31
30
31
33
34
34
33
33
34
33
33
34
34
33
33
33
33
34
65
0
0
0
0
0
0
0
0
0
0
0
0
0
0
0
0
0
0
0
0
0
0
0
0
0
0
0
0
0
0
0
0
0
0
0
0
0
0
0
0
0
0
0
0
0
0
0
0
0
0
0
0
137
137
137
137
137
137
137
137
137
137
137
137
137
137
137
137
137
137
137
137
138
65
0
0
0
0
0
0
0
0
0
0
1
24
32
27
29
33
34
34
33
33
34
34
33
34
34
33
34
34
33
35
42
0
0
0
0
0
0
0
0
0
0
0
0
0
0
0
0
0
0
0
0
0
0
0
0
0
0
0
0
0
0
0
0
0
0
0
0
0
0
0
0
0
0
0
0
0
0
0
0
0
0
0
0
137
137
137
137
137
137
137
137
137
137
137
137
137
137
137
137
137
137
137
137
138
65
0
0
0
0
0
0
0
0
0
0
0
20
28
4
7
34
38
50
35
35
50
36
34
47
42
34
38
41
33
36
182
0
0
0
0
0
0
0
0
0
0
0
0
0
0
0
0
0
0
0
0
0
0
0
0
0
0
0
0
0
0
0
0
0
0
0
0
0
0
0
0
0
0
0
0
0
0
0
0
0
0
0
0
137
137
137
137
137
137
137
137
136
137
137
137
137
137
137
137
137
137
137
137
138
65
0
0
0
0
0
0
0
0
0
0
0
15
30
6
4
34
36
35
34
34
37
35
34
42
37
34
38
37
33
37
0
0
0
0
0
0
0
0
0
0
0
0
0
0
0
0
0
0
0
0
0
0
0
0
0
0
0
0
0
0
0
0
0
0
0
0
0
0
0
0
0
0
0
0
0
0
0
0
0
0
0
0
0
137
137
137
137
137
137
137
137
137
136
137
137
137
137
137
137
137
137
137
137
138
65
0
0
0
0
0
0
0
0
0
0
0
10
31
26
27
33
33
33
33
33
33
33
33
33
33
33
33
33
33
38
0
0
0
0
0
0
0
0
0
0
0
0
0
0
0
0
0
0
0
0
0
0
0
0
0
0
0
0
0
0
0
0
0
0
0
0
0
0
0
0
0
0
0
0
0
0
0
0
0
0
0
0
0
137
137
137
137
137
136
137
137
137
137
137
137
137
137
137
137
137
137
137
137
138
65
0
0
0
0
0
0
0
0
0
0
0
6
30
32
32
33
33
33
33
33
34
33
33
33
33
33
33
33
33
37
0
0
0
0
0
0
0
0
0
0
0
0
0
0
0
0
0
0
0
0
0
0
0
0
0
0
0
0
0
0
0
0
0
0
0
0
0
0
0
0
0
0
0
0
0
0
0
0
0
0
0
0
0
137
137
137
137
137
137
137
137
137
137
137
137
137
137
137
137
137
137
137
137
138
65
0
0
0
0
0
0
0
0
0
0
0
3
28
23
10
35
35
40
36
34
42
35
34
40
37
34
41
35
33
38
0
0
0
0
0
0
0
0
0
0
0
0
0
0
0
0
0
0
0
0
0
0
0
0
0
0
0
0
0
0
0
0
0
0
0
0
0
0
0
0
0
0
0
0
0
0
0
0
0
0
0
0
0
137
137
137
137
137
137
137
137
137
137
137
137
137
137
137
137
137
137
137
137
138
65
0
0
0
0
0
0
0
0
0
0
0
1
24
24
0
35
34
31
36
34
72
35
34
32
35
34
64
34
34
50
0
0
0
0
0
0
0
0
0
0
0
0
0
0
0
0
0
0
0
0
0
0
0
0
0
0
0
0
0
0
0
0
0
0
0
0
0
0
0
0
0
0
0
137
136
137
137
137
0
0
0
0
0
137
137
137
137
137
137
137
137
137
137
137
137
137
137
137
137
137
137
137
137
138
65
0
0
0
0
0
0
0
0
0
0
0
0
18
31
23
34
33
34
34
33
35
34
34
34
34
34
35
33
34
87
0
0
0
0
0
0
0
0
0
0
0
0
0
0
0
0
0
0
0
0
0
0
0
0
0
0
0
0
0
0
0
0
0
0
0
0
0
0
0
0
0
136
136
136
137
137
137
136
136
0
0
0
0
137
137
137
137
137
137
137
137
137
137
137
137
137
137
137
137
137
137
137
137
138
65
0
0
0
0
0
0
0
0
0
0
0
0
13
33
33
33
33
33
33
33
33
33
33
33
33
33
33
33
35
74
0
0
0
0
0
0
0
0
0
0
0
0
0
0
0
0
0
0
0
0
0
0
0
0
0
0
0
0
0
0
0
0
0
0
0
0
0
0
0
0
136
136
136
136
136
136
136
136
136
136
0
0
0
137
137
137
137
137
137
137
137
137
137
137
137
137
137
137
137
137
137
137
137
138
65
0
0
0
0
0
0
0
0
0
0
0
0
8
31
25
34
34
36
35
34
36
34
34
36
34
34
36
33
36
0
0
0
0
0
0
0
0
0
0
0
0
0
0
0
0
0
0
0
0
0
0
0
0
0
0
0
0
0
0
0
0
0
0
0
0
0
0
0
0
136
138
136
136
136
136
136
136
136
136
136
136
0
0
137
137
137
137
137
137
137
137
137
137
137
137
137
137
137
137
137
137
137
137
138
65
0
0
0
0
0
0
0
0
0
0
0
0
5
29
25
35
34
40
39
34
42
35
34
2
34
36
37
33
37
0
0
0
0
0
0
0
0
0
0
0
0
0
0
0
0
0
0
0
0
0
0
0
0
0
0
0
0
0
0
0
0
0
0
0
0
0
0
0
137
108
136
136
136
136
136
136
136
136
136
136
137
0
0
137
137
136
136
137
137
137
137
137
136
137
137
137
137
137
137
137
137
137
137
138
65
0
0
0
0
0
0
0
0
0
0
0
0
2
26
33
36
34
36
36
34
36
34
34
37
34
35
35
33
38
45
0
0
0
0
0
0
0
0
0
0
0
0
0
0
0
0
0
0
0
0
0
0
0
0
0
0
0
0
0
0
0
0
0
0
0
0
0
0
136
136
136
136
136
136
136
136
136
136
136
136
136
136
0
137
138
139
137
137
137
137
137
136
139
138
137
137
137
137
137
137
137
137
137
138
65
0
0
0
0
0
0
0
0
0
0
0
0
0
21
34
33
33
33
33
33
33
33
33
33
33
33
33
33
35
49
0
0
0
0
0
0
0
0
0
0
0
0
0
0
0
0
0
0
0
0
0
0
0
0
0
0
0
0
0
0
0
0
0
0
0
0
0
136
136
136
136
136
136
136
136
136
136
136
136
136
136
137
0
136
148
158
143
136
137
137
136
140
156
152
137
136
137
137
137
137
137
137
137
138
65
0
0
0
0
0
0
0
0
0
0
0
0
0
11
27
35
35
35
35
35
35
35
35
35
35
35
34
33
33
39
0
0
0
0
0
0
0
0
0
0
0
0
0
0
0
0
0
0
0
0
0
0
0
0
0
0
0
0
0
0
0
0
0
0
0
0
0
135
136
136
136
136
136
136
136
0
136
136
136
136
136
136
0
138
152
150
154
138
136
136
137
151
151
153
139
136
137
137
137
137
137
137
137
138
65
0
0
0
0
0
0
0
0
0
0
0
0
0
0
2
43
55
55
55
55
55
55
54
55
55
55
53
36
33
36
75
0
0
0
0
0
0
0
0
0
0
0
0
0
0
0
0
0
0
0
0
0
0
0
0
0
0
0
0
0
0
0
0
0
0
0
137
136
136
136
136
136
136
137
0
0
0
136
136
136
136
136
137
137
151
140
151
145
136
136
142
154
139
153
138
137
137
137
137
137
137
137
137
138
65
0
0
0
0
0
0
0
0
0
0
0
0
0
0
0
0
55
55
55
55
55
55
55
55
55
55
53
42
34
35
84
0
0
0
0
0
0
0
0
0
0
0
0
0
0
0
0
0
0
0
0
0
0
0
0
0
0
0
0
0
0
0
0
0
0
0
136
136
136
136
136
136
136
0
0
0
0
136
136
136
136
136
137
136
147
149
142
152
137
136
149
146
144
151
137
137
137
137
137
137
137
137
137
138
65
0
0
0
0
0
0
0
0
0
0
0
0
0
0
0
63
31
31
31
31
31
31
31
31
31
31
31
140
34
34
54
0
0
0
0
0
0
0
0
0
0
0
0
0
0
0
0
0
0
0
0
0
0
0
0
0
0
0
0
0
0
0
0
0
0
0
136
136
136
136
136
136
141
0
0
0
0
144
136
136
136
136
136
136
139
156
143
153
149
148
154
142
155
143
136
137
137
137
137
137
137
137
137
138
65
0
0
0
0
0
0
0
0
0
0
0
0
5
15
19
35
35
35
35
35
35
35
35
35
35
35
35
35
34
34
51
0
0
0
0
0
0
0
0
0
0
0
0
0
0
0
0
0
0
0
0
0
0
0
0
0
0
0
0
0
0
0
0
0
0
0
136
136
136
136
136
136
136
136
136
136
136
0
136
136
136
136
135
136
135
146
156
154
163
163
156
154
150
136
136
136
137
137
137
137
137
137
137
138
65
0
0
0
0
0
0
0
0
0
0
0
0
15
34
34
33
33
33
33
33
33
33
33
33
33
33
33
33
33
35
70
0
0
0
0
0
0
0
0
0
0
0
0
0
0
0
0
0
0
0
0
0
0
0
0
0
0
0
0
0
0
0
0
0
0
136
136
136
136
136
136
136
136
136
136
136
136
0
136
136
136
136
146
146
142
142
154
165
164
164
165
157
143
142
142
142
139
137
137
137
137
137
137
138
65
0
0
0
0
0
0
0
0
0
0
0
0
9
26
28
33
33
34
34
34
34
34
34
34
34
34
33
33
34
37
21
0
0
0
0
0
0
0
0
0
0
0
0
0
0
0
0
0
0
0
0
0
0
0
0
0
0
0
0
0
0
0
0
0
0
137
136
136
136
136
136
136
136
136
136
136
136
0
136
136
136
136
163
184
180
180
180
183
168
166
181
181
180
180
180
181
155
136
137
137
137
137
137
138
65
0
0
0
0
0
0
0
0
0
0
0
0
0
2
16
119
114
50
49
49
49
49
49
49
49
65
117
119
81
46
147
0
0
0
0
0
0
0
0
0
0
0
0
0
0
0
0
0
0
0
0
0
0
0
0
0
0
0
0
0
0
0
0
0
0
136
136
136
136
136
136
136
136
136
136
136
136
0
136
136
136
135
161
187
187
187
187
186
169
166
184
187
187
187
187
188
159
135
137
137
137
137
137
138
65
1
0
0
0
0
0
0
0
0
0
0
0
0
5
84
134
133
136
56
51
51
51
51
51
53
135
133
133
134
148
0
0
0
0
0
0
0
0
0
0
0
0
0
0
0
0
0
0
0
0
0
0
0
0
0
0
0
0
0
0
0
0
0
0
0
136
136
136
136
136
136
136
136
136
136
136
0
0
136
136
136
135
158
187
187
187
187
186
169
166
184
187
187
187
187
185
156
136
137
137
137
137
137
138
64
46
39
0
0
0
0
0
0
0
0
0
0
0
32
126
134
132
133
144
0
0
0
0
0
136
133
133
133
132
135
0
0
0
0
0
0
0
0
0
0
0
0
0
0
0
0
0
0
0
0
0
0
0
0
0
0
0
0
0
0
0
0
0
0
0
136
136
136
136
136
136
136
136
136
136
136
0
0
136
136
136
135
156
187
187
187
187
186
169
166
184
187
187
187
187
175
141
137
137
137
137
137
137
138
64
79
114
17
0
0
0
0
0
0
0
0
0
0
56
134
0
134
133
138
0
0
0
0
0
135
133
134
136
133
134
0
0
0
0
0
0
0
0
0
0
0
0
0
0
0
0
0
0
0
0
0
0
0
0
0
0
0
0
0
0
0
0
0
0
137
136
136
136
136
136
136
136
136
136
136
0
0
0
136
136
136
135
155
187
187
187
187
186
169
166
184
187
187
187
187
173
138
137
137
137
137
137
137
138
68
92
140
70
1
0
0
0
0
0
0
0
0
0
57
135
128
134
133
137
0
0
0
0
0
134
133
134
136
133
134
136
136
136
136
0
0
0
0
0
0
0
0
0
0
0
0
0
0
0
0
0
0
0
0
0
0
0
0
0
0
0
0
0
0
137
136
136
136
136
136
136
136
136
136
137
0
0
0
136
136
136
135
155
187
187
187
187
186
169
166
184
187
187
187
187
173
138
137
137
137
137
137
137
138
72
105
140
106
7
0
0
0
0
0
0
0
0
0
38
128
134
133
133
142
0
0
0
0
0
136
133
133
133
132
135
136
136
136
137
136
0
0
0
0
0
0
0
0
0
0
0
0
0
0
0
0
0
0
0
0
0
0
0
0
0
0
0
0
0
136
136
136
136
136
136
136
136
136
136
137
0
0
0
136
136
136
135
157
187
187
187
187
186
169
166
184
187
187
187
187
173
138
137
137
137
137
137
137
137
80
115
140
99
4
0
0
0
0
0
0
0
0
0
9
95
134
132
134
139
0
0
0
0
0
145
133
132
132
133
136
136
137
138
137
134
0
0
0
0
0
0
0
0
0
0
0
0
0
0
0
0
0
0
0
0
0
0
0
0
0
0
0
0
0
136
136
136
136
136
136
136
136
136
136
0
0
0
0
136
136
136
135
158
187
187
187
187
186
169
166
184
187
187
187
187
179
139
137
137
137
137
137
137
137
94
128
137
106
1
0
0
0
0
0
0
0
0
0
0
41
134
134
138
255
0
0
0
0
0
141
136
134
134
134
137
132
103
95
126
139
153
0
0
0
0
0
0
0
0
0
0
0
0
0
0
0
0
0
0
0
0
0
0
0
0
0
0
0
0
136
136
136
136
136
136
136
136
136
136
0
0
0
0
136
136
136
135
161
187
187
187
187
186
169
166
184
187
187
187
187
187
221
136
136
136
136
136
136
137
139
136
136
137
1
0
0
0
0
0
0
0
0
0
0
72
131
132
136
0
0
0
0
0
0
0
135
131
130
139
132
68
44
62
90
131
156
0
0
0
0
0
0
0
0
0
0
0
0
0
0
0
0
0
0
0
0
0
0
0
0
0
0
0
0
136
136
136
136
136
136
136
136
136
135
0
0
0
0
136
136
136
135
164
187
187
187
187
186
169
166
184
187
187
187
187
187
190
141
136
136
137
143
143
144
136
136
136
136
22
23
23
23
23
23
23
23
23
23
23
24
154
162
0
0
0
0
0
0
0
0
0
156
158
143
99
43
66
73
87
115
149
0
0
0
0
0
0
0
0
0
0
0
0
0
0
0
0
0
0
0
0
0
0
0
0
0
0
0
0
136
136
136
136
136
136
136
136
136
137
0
0
0
0
136
136
136
136
165
188
187
185
187
186
169
166
183
187
187
187
186
187
192
136
136
136
136
137
0
142
136
136
136
136
136
136
136
0
0
0
0
137
137
137
0
0
0
137
137
0
0
137
137
137
0
0
137
137
0
142
90
67
46
106
60
116
144
0
0
0
0
0
0
0
0
0
0
0
0
0
0
0
0
0
0
0
0
0
0
0
0
0
0
0
0
136
136
136
136
136
136
136
136
136
0
0
0
0
0
136
136
136
136
143
191
178
142
148
191
172
152
142
153
191
189
146
143
157
136
136
136
136
137
136
133
136
136
136
136
136
136
136
136
0
0
136
136
137
136
136
0
0
125
136
136
0
137
135
136
138
0
136
136
136
137
130
75
29
45
58
133
138
0
0
0
0
0
0
0
0
0
0
0
0
0
0
0
0
0
0
0
0
0
0
0
0
0
0
0
0
136
136
136
136
136
136
136
136
136
0
0
0
0
137
136
136
136
136
135
192
134
136
136
133
172
135
136
136
129
190
135
136
136
136
136
136
136
136
136
137
136
136
136
136
136
136
136
136
0
136
136
136
136
136
136
136
0
136
136
136
137
137
136
136
136
0
136
136
136
136
135
62
58
48
124
137
136
0
0
0
0
0
0
0
0
0
0
0
0
0
0
0
0
0
0
0
0
0
0
0
0
0
0
0
0
136
136
136
136
136
136
136
136
137
0
0
0
0
138
136
136
136
136
136
137
136
136
136
136
142
136
136
136
136
135
136
136
136
136
136
136
136
136
136
136
136
136
136
136
136
136
136
136
138
136
136
136
136
136
136
134
0
136
136
136
136
136
136
136
136
137
136
136
136
137
132
69
117
68
117
137
137
0
0
0
0
0
0
0
0
0
0
0
0
0
0
0
0
0
0
0
0
0
0
0
0
0
0
0
0
136
136
136
136
136
136
136
136
136
0
0
0
0
136
136
136
136
136
136
137
136
136
136
136
142
136
136
136
136
138
136
136
136
136
136
136
136
136
136
136
136
136
136
136
136
136
136
136
136
136
136
136
136
136
136
136
137
136
136
136
136
136
136
136
136
137
136
136
136
136
136
124
135
120
119
139
136
0
0
0
0
0
0
0
0
0
0
0
0
0
0
0
0
0
0
0
0
0
0
0
0
0
0
0
0
136
136
136
136
136
136
136
136
0
0
0
0
0
136
136
136
136
136
137
136
136
136
136
136
137
136
136
136
136
136
136
136
136
136
136
136
136
136
136
136
136
136
136
136
136
136
136
136
136
136
136
136
136
136
136
136
138
136
136
136
136
136
136
136
136
137
136
136
136
136
136
137
136
137
137
136
136
0
0
0
0
0
0
0
0
0
0
0
0
0
0
0
0
0
0
0
0
0
0
0
0
0
0
0
0
137
136
136
136
136
136
136
136
0
0
0
0
0
136
136
136
136
136
137
136
136
136
136
136
136
136
136
136
136
136
136
136
136
136
136
136
136
136
136
136
136
136
136
136
136
136
136
136
136
136
136
136
136
136
136
136
136
136
136
136
136
136
136
136
136
136
136
136
136
136
136
136
136
136
136
136
136
0
0
0
0
0
0
0
0
0
0
0
0
0
0
0
0
0
0
0
0
0
0
0
0
0
0
0
0
137
136
136
136
136
136
136
136
0
0
0
0
0
136
136
136
136
136
136
136
136
136
136
136
136
136
136
136
136
136
136
136
136
136
136
136
136
136
136
136
136
136
136
136
136
136
136
136
136
136
136
136
136
136
136
136
136
136
136
136
136
136
136
136
136
136
136
136
136
136
136
136
136
136
136
136
136
0
0
0
0
0
0
0
0
0
0
0
0
0
0
0
0
0
0
0
0
0
0
0
0
0
0
0
0
0
136
136
136
136
136
136
136
0
0
0
0
137
136
136
136
136
136
136
136
136
136
136
136
136
136
136
136
136
136
136
136
136
136
136
136
136
136
136
136
136
136
136
136
136
136
136
136
136
136
136
136
136
136
136
136
136
136
136
136
136
136
136
136
136
136
136
136
136
136
136
136
136
136
136
136
138
0
0
0
0
0
0
0
0
0
0
0
0
0
0
0
0
0
0
0
0
0
0
0
0
0
0
0
0
0
136
136
136
136
136
136
136
0
0
0
0
137
136
136
136
136
136
136
136
136
136
136
136
136
136
136
136
136
136
136
136
136
136
136
136
136
136
136
136
136
136
136
136
136
136
136
136
136
136
136
136
136
136
136
136
136
136
136
136
136
136
136
136
136
136
136
136
136
136
136
136
136
136
136
136
137
0
0
0
0
0
0
0
0
0
0
0
0
0
0
0
0
0
0
0
0
0
0
0
0
0
0
0
0
0
136
136
136
136
136
136
138
0
0
0
0
136
136
136
136
136
137
136
136
136
136
136
136
136
136
136
136
136
136
136
136
136
136
136
136
136
136
136
136
136
136
136
136
136
136
136
136
136
136
136
136
136
136
136
136
136
136
136
136
136
136
136
136
136
136
136
136
136
136
136
136
136
136
136
136
0
0
0
0
0
0
0
0
0
0
0
0
0
0
0
0
0
0
0
0
0
0
0
0
0
0
0
0
0
0
136
136
136
136
136
136
137
0
0
0
0
136
136
136
136
136
136
136
136
136
136
136
136
136
136
136
136
136
136
136
136
136
137
136
136
136
136
136
136
136
136
136
136
136
136
136
136
136
136
136
136
136
136
136
136
136
136
136
136
136
136
136
136
136
136
136
136
136
136
136
136
136
136
136
136
0
0
0
0
0
0
0
0
0
0
0
0
0
0
0
0
0
0
0
0
0
0
0
0
0
0
0
0
0
0
137
136
136
136
136
136
136
0
0
0
137
136
136
136
136
136
136
136
136
136
136
136
136
136
136
136
136
136
136
136
136
136
136
136
136
136
136
136
136
136
136
136
136
136
136
136
136
136
136
136
136
136
136
136
136
136
136
136
136
136
136
136
136
136
136
136
136
136
136
136
136
136
136
136
136
0
0
0
0
0
0
0
0
0
0
0
0
0
0
0
0
0
0
0
0
0
0
0
0
0
0
0
0
0
0
0
137
136
136
136
136
136
136
0
0
137
136
136
136
136
136
136
136
136
136
136
136
136
136
136
136
136
136
136
136
136
136
142
136
136
136
136
136
136
136
136
136
136
136
136
136
136
136
136
136
136
134
136
136
136
136
136
136
136
136
136
136
136
136
136
136
136
136
136
136
136
136
136
136
136
0
0
0
0
0
0
0
0
0
0
0
0
0
0
0
0
0
0
0
0
0
0
0
0
0
0
0
0
0
0
0
137
136
136
136
136
136
136
136
137
136
136
136
136
136
136
136
136
136
136
136
136
136
136
136
136
136
136
136
136
136
136
0
136
136
136
136
136
136
136
136
136
136
136
136
136
136
136
136
136
136
136
136
136
136
136
136
136
136
136
136
136
136
136
136
136
136
136
136
136
136
136
136
136
0
0
0
0
0
0
0
0
0
0
0
0
0
0
0
0
0
0
0
0
0
0
0
0
0
0
0
0
0
0
0
0
0
136
136
136
136
136
136
136
136
136
136
136
136
136
136
136
136
136
136
136
136
136
136
136
136
136
136
136
136
136
136
0
136
136
136
136
136
136
136
136
137
136
136
136
136
136
136
136
136
136
136
136
136
0
136
136
136
136
136
136
136
136
136
136
136
136
138
136
136
136
136
136
136
0
0
0
0
0
0
0
0
0
0
0
0
0
0
0
0
0
0
0
0
0
0
0
0
0
0
0
0
0
0
0
0
0
137
136
136
136
136
136
136
136
136
136
136
136
136
136
136
136
144
136
136
136
136
137
136
136
136
136
136
136
136
136
0
136
136
136
136
136
136
136
136
136
136
136
136
136
136
135
136
136
136
136
136
136
0
136
136
136
136
136
136
136
136
136
136
136
136
137
137
136
136
136
136
136
0
0
0
0
0
0
0
0
0
0
0
0
0
0
0
0
0
0
0
0
0
0
0
0
0
0
0
0
0
0
0
0
0
137
136
136
136
136
136
136
136
136
136
136
136
136
136
136
141
137
136
136
136
136
137
136
136
136
136
136
136
136
137
0
136
136
136
136
136
136
136
136
0
136
136
136
136
136
137
137
136
136
136
136
137
0
136
136
136
136
136
136
136
136
136
136
136
136
0
137
136
136
136
136
137
0
0
0
0
0
0
0
0
0
0
0
0
0
0
0
0
0
0
0
0
0
0
0
0
0
0
0
0
0
0
0
0
0
0
136
136
136
136
136
136
136
136
136
136
136
136
136
137
0
0
136
136
135
136
0
136
136
136
136
136
133
136
136
0
138
136
135
136
137
136
137
136
0
0
136
136
135
136
0
136
136
137
144
136
0
0
137
136
134
136
137
136
136
135
136
137
137
136
0
0
136
136
135
136
0
0
0
0
0
0
0
0
0
0
0
0
0
0
0
0
0
0
0
0
0
0
0
0
0
0
0
0
0
0
0
0
0
0
0
136
136
136
136
136
136
136
136
136
136
136
136
136
0
0
0
0
137
137
137
0
0
137
137
0
0
136
136
136
0
0
137
136
137
0
0
136
136
0
0
0
137
136
138
0
0
137
136
137
0
0
0
0
139
137
137
0
0
137
136
137
0
136
136
0
0
0
137
137
0
0
0
0
0
0
0
0
0
0
0
0
0
0
0
0
0
0
0
0
0
0
0
0
0
0
0
0
0
0
0
0
0
0
0
0
135
136
136
136
136
136
136
136
136
136
136
136
0
0
0
0
0
0
0
0
0
0
0
0
0
0
0
0
0
0
0
0
0
0
0
0
0
0
0
0
0
0
0
0
0
0
0
0
0
0
0
0
0
0
0
0
0
0
0
0
0
0
0
0
0
0
0
0
0
0
0
0
0
0
0
0
0
0
0
0
0
0
0
0
0
0
0
0
0
0
0
0
0
0
0
0
0
0
0
0
0
0
0
0
0
137
136
136
136
136
136
136
136
136
137
0
0
0
0
0
0
0
0
0
0
0
0
0
0
0
0
0
0
0
0
0
0
0
0
0
0
0
0
0
0
0
0
0
0
0
0
0
0
0
0
0
0
0
0
0
0
0
0
0
0
0
0
0
0
0
0
0
0
0
0
0
0
0
0
0
0
0
0
0
0
0
0
0
0
0
0
0
0
0
0
0
0
0
0
0
0
0
0
0
0
0
0
0
0
0
0
136
136
136
136
136
136
136
136
0
0
0
0
0
0
0
0
0
0
0
0
0
0
0
0
0
0
0
0
0
0
0
0
0
0
0
0
0
0
0
0
0
0
0
0
0
0
0
0
0
0
0
0
0
0
0
0
0
0
0
0
0
0
0
0
0
0
0
0
0
0
0
0
0
0
0
0
0
0
0
0
0
0
0
0
0
0
0
0
0
0
0
0
0
0
0
0
0
0
0
0
0
0
0
0
0
142
136
136
136
137
136
136
0
0
0
0
0
0
0
0
0
0
0
0
0
0
0
0
0
0
0
0
0
0
0
0
0
0
0
0
0
0
0
0
0
0
0
0
0
0
0
0
0
0
0
0
0
0
0
0
0
0
0
0
0
0
0
0
0
0
0
0
0
0
0
0
0
0
0
0
0
0
0
0
0
0
0
0
0
0
0
0
0
0
0
0
0
0
0
0
0
0
0
0
0
0
0
0
0
0
0
0
137
136
136
137
0
0
0
0
0
0
0
0
0
0
0
0
0
0
0
0
0
0
0
0
0
0
0
0
0
0
0
0
0
0
0
0
0
0
0
0
0
0
0
0
0
0
0
0
0
0
0
0
0
0
0
0
0
0
0
0
0
0
0
0
0
0
0
0
0
0
0
0
0
0
0
0
0
0
0
0
0
0
0
0
0
0
0
0
0
0
0
0
0
0
0
0
0
0
0
0
0
0
0
0
0
0
0
0
0
0
0
0
0
0
0
0
0
0
0
0
0
0
0
0
0
0
0
0
0
0
0
0
0
0
0
0
0
0
0
0
0
0
0
0
0
0
0
0
0
0
0
0
0
0
0
0
0
0
0
0
0
0
0
0
0
0
0
0
0
0
0
0
0
0
0
0
0
0
0
0
0
0
0
0
0
0
0
0
0
0
0
0
0
0
0
0
0
0
0
0
0
0
0
0
0
0
0
0
0
0
0
0
0
0
0
0
0
0
0
0
0
0
0
0
0
0
0
0
0
0
0
0
0
0
0
0
0
0
0
0
0
0
0
0
0
0
0
0
0
0
0
0
0
0
0
0
0
0
0
0
0
0
0
0
0
0
0
0
0
0
0
0
0
0
0
0
0
0
0
0
0
0
0
0
0
0
0
0
0
0
0
0
0
0
0
0
0
0
0
0
0
0
0
0
0
0
0
0
0
0
0
0
0
0
0
0
0
0
0
0
0
0
0
0
0
0
0
0
0
0
0
0
0
0
0
0
0
0
0
0
0
0
0
0
0
0
0
0
0
0
0
0
0
0
0
0
0
0
0
0
0
0
0
0
0
0
0
0
0
0
0
0
0
0
0
0
0
0
0
0
0
0
0
0
0
0
0
0
0
0
0
0
0
0
0
0
0
0
0
0
0
0
0
0
0
0
0
0
0
0
0
0
0
0
0
0
0
0
0
0
0
0
0
0
0
0
0
0
0
0
0
0
0
0
0
0
0
0
0
0
0
0
0
0
0
0
0
0
0
0
0
0
0
0
0
0
0
0
0
0
0
0
0
0
0
0
0
0
0
0
0
0
0
0
0
0
0
0
0
0
0
0
0
0
0
0
0
0
0
0
0
0
0
0
0
0
0
0
0
0
0
0
0
0
0
0
0
0
0
0
0
0
0
0
0
0
0
0
0
0
0
0
0
0
0
0
0
0
0
0
0
0
0
0
0
0
0
0
0
0
0
0
0
0
0
0
0
0
0
0
0
0
0
0
0
0
0
0
0
0
0
0
0
0
0
0
0
0
0
0
0
0
0
0
0
0
0
0
0
0
0
0
0
0
0
0
0
0
0
0
0
0
0
0
0
0
0
0
0
0
0
0
0
0
0
0
0
0
0
0
0
0
0
0
0
0
0
0
0
0
0
0
0
0
0
0
0
0
0
0
0
0
0
0
0
0
0
0
0
0
0
0
0
0
0
0
0
0
0
0
0
0
0
0
0
0
0
0
0
0
0
0
0
0
0
0
0
0
0
0
0
0
0
0
0
0
0
0
0
0
0
0
0
0
0
0
0
0
0
0
0
0
0
0
0
0
0
0
0
0
0
0
0
0
0
0
0
0
0
0
0
0
0
0
0
0
0
0
0
0
0
0
0
0
0
0
0
0
0
0
0
0
0
0
0
0
0
0
0
0
0
0
0
0
0
0
0
0
0
0
0
0
0
0
0
0
0
0
0
0
0
0
0
0
0
0
0
0
0
0
0
0
0
0
0
0
0
0
0
0
0
0
0
0
0
0
0
0
0
0
0
0
0
0
0
0
0
0
0
0
0
0
0
0
0
0
0
0
0
0
0
0
0
0
0
0
0
0
0
0
0
0
0
0
0
0
0
0
0
0
0
0
0
0
0
0
0
0
0
0
0
0
0
0
0
0
0
0
0
0
0
0
0
0
0
0
0
0
0
0
0
0
0
0
0
0
0
0
0
0
0
0
0
0
0
0
0
0
0
0
0
0
0
0
0
0
0
0
0
0
0
0
0
0
0
0
0
0
0
0
0
0
0
0
0
0
0
0
0
0
0
0
0
0
0
0
0
0
0
0
0
0
0
0
0
0
0
0
0
0
0
0
0
0
0
0
0
0
0
0
0
0
0
0
0
0
0
0
0
0
0
0
0
0
0
0
0
0
0
0
0
0
0
0
0
0
0
0
0
0
0
0
0
0
0
0
0
0
0
0
0
0
0
0
0
0
0
0
0
0
0
0
0
0
0
0
0
0
0
0
0
0
0
0
0
0
0
0
0
0
0
0
0
0
0
0
0
0
0
0
0
0
0
0
0
0
0
0
0
0
0
0
0
0
0
0
0
0
0
0
0
0
0
0
0
0
0
0
0
0
0
0
0
0
0
0
0
0
0
0
0
0
0
0
0
0
0
0
0
0
0
0
0
0
0
0
0
0
0
0
0
0
0
0
0
0
0
0
0
0
0
0
0
0
0
0
0
0
0
0
0
0
0
0
0
0
0
0
0
0
0
0
0
0
0
0
0
0
0
0
0
0
0
0
0
0
0
0
0
0
0
0
0
0
0
0
0
0
0
0
0
0
0
0
0
0
0
0
0
0
0
0
0
0
0
0
0
0
0
0
0
0
0
0
0
0
0
0
0
0
0
0
0
0
0
0
0
0
0
0
0
0
0
0
0
0
0
0
0
0
0
0
0
0
0
0
0
0
0
0
0
0
0
0
0
0
0
0
0
0
0
0
0
0
0
0
0
0
0
0
0
0
0
0
0
0
0
0
0
0
0
0
0
0
0
0
0
0
0
0
0
0
0
0
0
0
0
0
0
0
0
0
0
0
0
0
0
0
0
0
0
0
0
0
0
0
0
0
0
0
0
0
0
0
0
0
0
0
0
0
0
0
0
0
0
0
0
0
0
0
0
0
0
0
0
0
0
0
0
0
0
0
0
0
0
0
0
0
0
0
0
0
0
0
0
0
0
0
0
0
0
0
0
0
0
0
0
0
0
0
0
0
0
0
0
0
0
0
0
0
0
0
0
0
0
0
0
0
0
0
0
0
0
0
0
0
0
0
0
0
0
0
0
0
0
0
0
0
0
0
0
0
0
0
0
0
0
0
0
0
0
0
0
0
0
0
0
0
0
0
0
0
0
0
0
0
0
0
0
0
0
0
0
0
0
0
0
0
0
0
0
0
0
0
0
0
0
0
0
0
0
0
0
0
0
0
0
0
0
0
0
0
0
0
0
0
0
0
0
0
0
0
0
0
0
0
0
0
0
0
0
0
0
0
0
0
0
0
0
0
0
0
0
0
0
0
0
0
0
0
0
0
0
0
0
0
0
0
0
0
0
0
0
0
0
0
0
0
0
0
0
0
0
0
0
0
0
0
0
0
0
0
0
0
0
0
0
0
0
0
0
0
0
0
0
0
0
0
0
0
0
0
0
0
0
0
0
0
0
0
0
0
0
0
0
0
0
0
0
0
0
0
0
0
0
0
0
0
0
0
0
0
0
0
0
0
0
0
0
0
0
0
0
0
0
0
0
0
0
0
0
0
0
0
0
0
0
0
0
0
0
0
0
0
0
0
0
0
0
0
0
0
0
0
0
0
0
0
0
0
0
0
0
0
0
0
0
0
0
0
0
0
0
0
0
0
0
0
0
0
0
0
0
0
0
0
0
0
0
0
0
0
0
0
0
0
0
0
0
0
0
0
0
0
0
0
0
0
0
0
0
0
0
0
0
0
0
0
0
0
0
0
0
0
0
0
0
0
0
0
0
0
0
0
0
0
0
0
0
0
0
0
0
0
0
0
0
0
0
0
0
0
0
0
0
0
0
0
0
0
0
0
0
0
0
0
0
0
0
0
0
0
0
0
0
0
0
0
0
0
0
0
0
0
0
0
0
0
0
0
0
0
0
0
0
0
0
0
0
0
0
0
0
0
0
0
0
0
0
0
0
0
0
0
0
0
0
0
0
0
0
0
0
0
0
0
0
0
0
0
0
0
0
0
0
0
0
0
0
0
0
0
0
0
0
0
0
0
0
0
0
0
0
0
0
0
0
0
0
0
0
0
0
0
0
0
0
0
0
0
0
0
0
0
0
0
0
0
0
0
0
0
0
0
0
0
0
0
0
0
0
0
0
0
0
0
0
0
0
0
0
0
0
0
0
0
0
0
0
0
0
0
0
0
0
0
0
0
0
0
0
0
0
0
0
0
0
0
0
0
0
0
0
0
0
0
0
0
0
0
0
0
0
0
0
0
0
0
0
0
0
0
0
0
0
0
0
0
0
0
0
0
0
0
0
0
0
0
0
0
0
0
0
0
0
0
0
0
0
0
0
0
0
0
0
0
0
0
0
0
0
0
0
0
0
0
0
0
0
0
0
0
0
0
0
0
0
0
0
0
0
0
0
0
0
0
0
0
0
0
0
0
0
0
0
0
0
0
0
0
0
0
0
0
0
