P2
# file mofidified by Lea
24 7
15
0 0 0 0 0 0 0 0 0 0 0 0 0 0 0 0 0 0 0 0 0 0 0 0 0 6 6 6 6 0 0 14 14 14 14 0 0 15 15 15 15 0 0 15 15 15 15 0 0 6 0 0 0 0 0 14 0 0 0 0 0 15 0 0 0 0 0 15 0 0 15 0 0 6 6 6 0 0 0 14 14 14 0 0 0 15 15 15 0 0 0 15 15 15 15 0 0 6 0 0 0 0 0 14 0 0 0 0 0 15 0 0 0 0 0 15 0 0 0 0 0 6 0 0 0 0 0 14 14 14 14 0 0 15 15 15 15 0 0 15 0 0 0 0 0 0 0 0 0 0 0 0 0 0 0 0 0 0 0 0 0 0 0 0 0 0 0 0 
