P2
24 7
16
0 0 1 1 0 0 0 1 2 2 1 0 1 3 4 4 3 1 1 4 5 5 4 0 0 1 1 1 0 0 1 3 3 3 2 0 2 4 5 4 3 1 2 6 7 7 6 0 1 1 2 1 0 0 1 4 4 3 1 0 3 6 7 5 3 0 4 9 10 10 9 0 1 1 1 0 0 0 1 4 4 2 0 0 3 6 6 3 1 0 4 8 9 7 6 0 1 1 1 0 0 0 1 4 4 3 1 0 3 6 7 5 3 0 4 7 7 4 2 0 0 0 0 0 0 0 1 3 3 3 2 0 2 4 5 4 3 1 2 4 2 0 0 0 0 0 0 0 0 0 0 0 0 0 0 0 0 0 0 0 0 0 0 0 0 0 0 0 
